<svg width="2758" height="342" viewBox="0 0 2758 342" fill="none" xmlns="http://www.w3.org/2000/svg">
<path d="M55.584 71.6V198.608C55.584 203.216 56.16 207.632 57.312 211.856C58.656 215.888 60.864 219.44 63.936 222.512C67.008 225.392 71.04 227.696 76.032 229.424C81.216 231.152 87.648 232.016 95.328 232.016H170.784V266H93.312C80.448 266 69.408 264.368 60.192 261.104C51.168 257.648 43.776 252.944 38.016 246.992C32.256 241.04 28.032 234.032 25.344 225.968C22.848 217.712 21.6 208.688 21.6 198.896V71.6H55.584ZM222.068 266H184.628L252.884 93.2C256.532 83.984 261.62 77.552 268.148 73.904C274.868 70.064 283.412 68.144 293.78 68.144C303.956 68.144 312.308 70.064 318.836 73.904C325.556 77.552 330.644 83.984 334.1 93.2L399.764 266H362.036L302.996 109.616C301.268 105.2 298.1 102.992 293.492 102.992C288.884 102.992 285.62 105.2 283.7 109.616L222.068 266ZM450.205 71.6V201.488C450.205 211.28 452.701 218.864 457.693 224.24C462.877 229.424 471.133 232.016 482.461 232.016H517.021C527.965 232.016 536.029 229.424 541.213 224.24C546.397 218.864 548.989 211.28 548.989 201.488V71.6H582.397V204.08C582.397 224.624 577.117 240.08 566.557 250.448C555.997 260.816 540.253 266 519.325 266H478.429C436.573 266 415.645 245.36 415.645 204.08V71.6H450.205ZM661.718 266H627.734V110.48C627.734 97.808 631.382 87.632 638.678 79.952C645.974 72.08 657.206 68.144 672.374 68.144C685.814 68.144 695.99 71.408 702.902 77.936C710.006 84.272 715.574 93.008 719.606 104.144L776.342 228.272C777.494 230.576 779.03 232.496 780.95 234.032C782.87 235.568 785.462 236.336 788.726 236.336C792.374 236.336 795.158 235.376 797.078 233.456C799.19 231.344 800.246 228.656 800.246 225.392V71.6H834.518V226.832C834.518 239.696 830.774 250.064 823.286 257.936C815.99 265.616 804.854 269.456 789.878 269.456C783.158 269.456 777.206 268.592 772.022 266.864C767.03 265.328 762.614 263.024 758.774 259.952C755.126 256.688 751.958 252.848 749.27 248.432C746.582 244.016 744.278 239.024 742.358 233.456L685.622 109.328C683.126 103.76 679.094 100.976 673.526 100.976C669.686 100.976 666.71 102.032 664.598 104.144C662.678 106.064 661.718 108.752 661.718 112.208V266ZM1036.96 71.6V105.584H961.787C942.971 105.584 929.243 110.576 920.603 120.56C912.155 130.352 907.931 146.48 907.931 168.944C907.931 191.216 912.155 207.344 920.603 217.328C929.051 227.12 942.779 232.016 961.787 232.016H1036.96V266H961.787C933.371 266 911.579 258.032 896.411 242.096C881.435 225.968 873.947 201.584 873.947 168.944C873.947 136.112 881.435 111.728 896.411 95.792C911.579 79.664 933.371 71.6 961.787 71.6H1036.96ZM1111.44 71.6V150.8H1210.8V71.6H1245.08V266H1210.8V184.784H1111.44V266H1077.46V71.6H1111.44ZM1326.04 71.6V266H1292.05V71.6H1326.04ZM1406.75 266H1372.77V110.48C1372.77 97.808 1376.41 87.632 1383.71 79.952C1391.01 72.08 1402.24 68.144 1417.41 68.144C1430.85 68.144 1441.02 71.408 1447.93 77.936C1455.04 84.272 1460.61 93.008 1464.64 104.144L1521.37 228.272C1522.53 230.576 1524.06 232.496 1525.98 234.032C1527.9 235.568 1530.49 236.336 1533.76 236.336C1537.41 236.336 1540.19 235.376 1542.11 233.456C1544.22 231.344 1545.28 228.656 1545.28 225.392V71.6H1579.55V226.832C1579.55 239.696 1575.81 250.064 1568.32 257.936C1561.02 265.616 1549.89 269.456 1534.91 269.456C1528.19 269.456 1522.24 268.592 1517.05 266.864C1512.06 265.328 1507.65 263.024 1503.81 259.952C1500.16 256.688 1496.99 252.848 1494.3 248.432C1491.61 244.016 1489.31 239.024 1487.39 233.456L1430.65 109.328C1428.16 103.76 1424.13 100.976 1418.56 100.976C1414.72 100.976 1411.74 102.032 1409.63 104.144C1407.71 106.064 1406.75 108.752 1406.75 112.208V266ZM1786.88 71.6V105.584H1706.82C1688 105.584 1674.27 110.576 1665.63 120.56C1657.19 130.352 1652.96 146.48 1652.96 168.944C1652.96 191.216 1657.19 207.344 1665.63 217.328C1674.08 227.12 1687.81 232.016 1706.82 232.016H1739.07C1748.67 232.016 1755.59 229.52 1759.81 224.528C1764.03 219.344 1766.15 212.72 1766.15 204.656C1766.15 196.784 1764.13 190.736 1760.1 186.512C1756.26 182.096 1750.31 179.888 1742.24 179.888H1699.04V150.224H1745.7C1763.17 150.224 1776.13 155.216 1784.58 165.2C1793.03 174.992 1797.25 188.336 1797.25 205.232C1797.25 213.68 1796.1 221.648 1793.79 229.136C1791.68 236.432 1788.13 242.864 1783.14 248.432C1778.34 253.808 1772.1 258.128 1764.42 261.392C1756.93 264.464 1747.71 266 1736.77 266H1706.82C1678.4 266 1656.61 258.032 1641.44 242.096C1626.47 225.968 1618.98 201.584 1618.98 168.944C1618.98 136.112 1626.47 111.728 1641.44 95.792C1656.61 79.664 1678.4 71.6 1706.82 71.6H1786.88ZM2011.84 71.6C2022.79 71.6 2032.2 73.232 2040.07 76.496C2047.94 79.568 2054.37 83.792 2059.36 89.168C2064.55 94.352 2068.29 100.496 2070.6 107.6C2073.09 114.704 2074.34 122.096 2074.34 129.776C2074.34 137.072 2073.19 144.368 2070.88 151.664C2068.77 158.96 2065.22 165.488 2060.23 171.248C2055.24 177.008 2048.71 181.712 2040.64 185.36C2032.77 189.008 2023.17 190.832 2011.84 190.832H1951.36C1948.1 190.832 1946.47 192.464 1946.47 195.728V266H1912.48V189.104C1912.48 178.16 1914.88 170.288 1919.68 165.488C1924.48 160.688 1932.26 158.288 1943.01 158.288H2013C2017.8 158.288 2021.92 157.52 2025.38 155.984C2028.84 154.448 2031.62 152.432 2033.73 149.936C2035.84 147.44 2037.38 144.656 2038.34 141.584C2039.49 138.32 2040.07 134.96 2040.07 131.504C2040.07 124.4 2037.86 118.352 2033.44 113.36C2029.22 108.176 2022.5 105.584 2013.28 105.584H1912.2V71.6H2011.84ZM2106.16 266H2068.72L2136.98 93.2C2140.63 83.984 2145.71 77.552 2152.24 73.904C2158.96 70.064 2167.51 68.144 2177.87 68.144C2188.05 68.144 2196.4 70.064 2202.93 73.904C2209.65 77.552 2214.74 83.984 2218.19 93.2L2283.86 266H2246.13L2187.09 109.616C2185.36 105.2 2182.19 102.992 2177.59 102.992C2172.98 102.992 2169.71 105.2 2167.79 109.616L2106.16 266ZM2397.38 71.6C2425.99 71.6 2447.69 79.568 2462.47 95.504C2477.45 111.44 2484.93 135.92 2484.93 168.944C2484.93 201.776 2477.45 226.16 2462.47 242.096C2447.69 258.032 2425.99 266 2397.38 266H2328.84C2318.09 266 2312.71 260.72 2312.71 250.16V87.44C2312.71 76.88 2318.09 71.6 2328.84 71.6H2397.38ZM2346.69 228.56C2346.69 230.864 2347.94 232.016 2350.44 232.016H2397.38C2416.2 232.016 2429.83 227.024 2438.28 217.04C2446.73 207.056 2450.95 190.928 2450.95 168.656C2450.95 146.384 2446.73 130.352 2438.28 120.56C2430.02 110.576 2416.39 105.584 2397.38 105.584H2350.44C2347.94 105.584 2346.69 106.736 2346.69 109.04V228.56Z" fill="white"/>
<path d="M2756.06 69.9371C2754.77 68.6738 2752.88 67.95 2751.25 68.0027C2713.85 68.7001 2670.22 90.4134 2642.52 121.957C2612.54 123.023 2587.54 132.011 2571.94 147.526C2570.25 149.21 2569.6 151.671 2570.25 153.961C2570.9 156.251 2572.73 158.014 2575.08 158.58L2603.24 165.291L2603.07 165.476C2600.71 168.068 2600.82 172.055 2603.31 174.529L2650.89 221.864C2652.18 223.154 2653.87 223.786 2655.58 223.786C2657.16 223.786 2658.74 223.233 2660 222.101L2660.18 221.93L2666.93 249.947C2667.48 252.263 2669.26 254.105 2671.57 254.75C2672.17 254.921 2672.76 255 2673.37 255C2675.1 255 2676.78 254.329 2678.05 253.079C2693.66 237.55 2702.69 212.679 2703.76 182.859C2735.51 155.211 2757.3 111.863 2758 74.7009C2758.01 72.9244 2757.33 71.2005 2756.06 69.9371V69.9371Z" fill="white"/>
<path d="M2582.5 204.09C2573.7 213.018 2562.44 250.1 2560.28 257.445C2559.58 259.786 2560.22 262.328 2561.92 264.057C2563.17 265.321 2564.84 266 2566.56 266C2567.19 266 2567.82 265.907 2568.45 265.721C2575.69 263.525 2612.22 252.109 2621.03 243.168C2631.66 232.39 2631.66 214.867 2621.03 204.076C2610.38 193.299 2593.1 193.312 2582.5 204.09V204.09Z" fill="white"/>
</svg>
